<?xml version="1.0" standalone="no"?>
<!DOCTYPE svg PUBLIC "-//W3C//DTD SVG 20010904//EN"
 "http://www.w3.org/TR/2001/REC-SVG-20010904/DTD/svg10.dtd">
<svg version="1.0" xmlns="http://www.w3.org/2000/svg"
 width="415.000000pt" height="135.000000pt" viewBox="0 0 415.000000 135.000000"
 preserveAspectRatio="xMidYMid meet">
<metadata>
Created by potrace 1.16, written by Peter Selinger 2001-2019
</metadata>
<g transform="translate(0.000000,135.000000) scale(0.100000,-0.100000)"
fill="#000000" stroke="none">
<path d="M706 1138 c-8 -13 -17 -33 -20 -45 -6 -20 -60 -53 -86 -53 -6 0 -24
7 -40 15 -27 14 -33 14 -59 0 -47 -24 -74 -65 -66 -100 16 -68 10 -107 -19
-131 -15 -13 -36 -24 -46 -24 -29 0 -43 -36 -37 -93 7 -56 19 -74 50 -79 31
-4 70 -67 62 -98 -21 -81 -20 -88 28 -136 l45 -45 40 16 c60 24 116 7 132 -40
14 -44 35 -55 99 -55 49 0 52 2 68 37 12 25 28 39 48 46 106 31 107 65 1 165
l-56 53 -58 -7 c-110 -12 -195 49 -215 154 -4 17 -4 32 0 32 3 0 28 -21 55
-46 43 -40 54 -45 80 -40 44 9 95 50 118 96 11 22 20 44 20 50 0 6 -23 36 -51
66 l-52 54 32 0 c36 0 97 -28 123 -57 35 -39 50 -93 43 -157 l-6 -61 59 -58
c71 -70 97 -73 125 -14 11 23 24 37 36 37 33 0 51 32 51 92 0 58 -13 79 -56
92 -30 9 -48 58 -39 104 13 65 8 83 -31 123 -42 43 -54 46 -89 23 -40 -26
-125 5 -125 46 0 38 -35 60 -95 60 -46 0 -57 -4 -69 -22z m120 -60 c7 -26 20
-38 64 -60 65 -32 76 -33 114 -13 27 14 30 14 53 -12 16 -19 22 -35 17 -48
-15 -49 -15 -77 1 -118 16 -41 32 -56 78 -71 12 -4 17 -16 17 -45 0 -34 -4
-40 -29 -49 -16 -6 -37 -23 -47 -39 -10 -15 -19 -30 -21 -32 -2 -3 -21 13 -43
34 -39 38 -40 41 -40 110 0 87 -22 138 -80 188 -51 43 -131 65 -182 51 -51
-15 -47 -39 17 -104 45 -46 56 -62 50 -79 -9 -28 -63 -81 -82 -81 -9 0 -42 25
-74 55 -32 30 -64 55 -73 55 -42 0 -46 -111 -7 -188 38 -74 110 -112 215 -112
61 0 62 0 116 -55 57 -57 57 -57 -10 -72 -27 -7 -39 -18 -54 -46 -16 -33 -22
-38 -49 -35 -24 2 -35 11 -51 43 -15 28 -31 43 -56 52 -45 15 -96 16 -122 2
-17 -9 -24 -7 -44 17 -27 33 -28 45 -13 89 16 44 -25 125 -75 149 -32 15 -36
21 -36 54 0 33 4 39 38 53 53 22 77 73 69 149 -6 51 -4 59 17 79 23 22 25 22
56 6 54 -28 140 8 166 70 13 31 18 35 53 35 35 0 39 -3 47 -32z"/>
<path d="M1415 1056 c-102 -45 -126 -203 -44 -285 50 -51 154 -64 205 -26 18
12 18 15 2 48 -16 33 -18 34 -65 30 -63 -6 -86 15 -81 77 2 33 9 48 30 63 24
18 32 19 63 10 34 -11 36 -10 50 17 8 16 15 36 15 44 0 32 -117 47 -175 22z"/>
<path d="M1627 1064 c-11 -11 -8 -238 4 -272 16 -45 54 -66 121 -66 108 -1
137 45 137 215 1 119 -5 133 -61 127 l-33 -3 -5 -117 c-5 -123 -13 -145 -49
-133 -19 6 -21 15 -23 128 l-3 122 -40 3 c-23 2 -44 0 -48 -4z"/>
<path d="M1944 1036 c-61 -61 -38 -138 53 -177 26 -11 43 -24 40 -32 -4 -13
-13 -13 -63 -2 -28 6 -32 4 -44 -24 -7 -17 -10 -37 -7 -45 6 -15 66 -36 105
-36 40 0 90 27 106 59 34 64 10 115 -72 155 -41 20 -52 30 -43 39 8 8 19 8 44
-1 18 -7 38 -12 44 -12 11 0 33 43 33 66 0 21 -60 44 -116 44 -39 0 -51 -5
-80 -34z"/>
<path d="M2167 1064 c-4 -4 -7 -24 -7 -45 0 -37 1 -38 43 -41 l42 -3 2 -120 1
-120 49 0 48 0 3 122 3 122 37 3 c36 3 37 4 37 43 l0 40 -126 3 c-69 1 -128
-1 -132 -4z"/>
<path d="M2525 1056 c-120 -53 -129 -244 -15 -310 47 -28 133 -28 179 -1 60
35 76 67 76 150 0 82 -14 111 -75 153 -38 26 -116 30 -165 8z m120 -106 c39
-43 12 -130 -40 -130 -39 0 -67 31 -67 74 0 68 65 102 107 56z"/>
<path d="M2805 1062 c-3 -3 -5 -79 -5 -169 l0 -164 53 3 52 3 3 60 4 60 21
-60 c22 -59 22 -60 61 -60 l39 0 23 65 22 65 1 -67 1 -68 50 0 50 0 0 171 0
171 -47 -3 c-27 -1 -53 -4 -60 -6 -6 -3 -26 -45 -43 -94 -18 -50 -36 -87 -40
-82 -4 4 -18 39 -30 77 -29 88 -46 106 -104 104 -25 0 -48 -3 -51 -6z"/>
<path d="M3227 1064 c-4 -4 -7 -81 -7 -171 l0 -163 121 0 120 0 -3 43 -3 42
-67 3 c-60 3 -68 5 -68 22 0 17 7 20 49 20 47 0 49 1 54 33 2 17 3 35 0 40 -2
4 -26 7 -54 7 -42 0 -49 3 -49 20 0 18 7 20 66 20 l65 0 -3 43 -3 42 -106 3
c-58 1 -108 -1 -112 -4z"/>
<path d="M3491 1056 c-8 -9 -11 -63 -9 -167 l3 -154 50 0 50 0 5 49 5 50 24
-52 24 -52 59 0 c32 0 58 2 58 5 0 3 -16 31 -35 61 -19 30 -35 56 -35 59 0 2
11 16 25 31 19 20 25 38 25 71 0 79 -59 113 -195 113 -24 0 -48 -6 -54 -14z"/>
<path d="M2956 680 c-68 -21 -102 -90 -72 -148 10 -20 34 -39 71 -57 31 -14
53 -30 50 -35 -8 -13 -62 -13 -70 0 -12 19 -26 10 -41 -25 -7 -19 -14 -38 -14
-43 0 -17 52 -32 109 -32 51 0 63 4 90 29 25 23 31 37 31 69 0 50 -27 85 -85
108 -54 23 -62 49 -12 41 17 -3 39 -8 48 -11 10 -5 20 4 32 29 9 20 17 37 17
39 0 7 -66 34 -95 39 -16 3 -43 2 -59 -3z"/>
<path d="M1338 674 c-5 -4 -8 -81 -8 -171 l0 -163 50 0 49 0 3 58 3 57 27 -57
27 -58 55 0 c66 0 68 6 26 70 -35 53 -36 61 -10 85 44 40 34 127 -19 161 -28
19 -189 33 -203 18z"/>
<path d="M1625 667 c-3 -7 -4 -82 -3 -167 l3 -155 118 -3 117 -3 0 45 0 45
-67 3 c-53 2 -68 6 -68 18 0 11 14 16 50 20 49 5 50 5 53 42 l3 37 -53 3 c-39
2 -53 7 -53 18 0 11 16 16 65 20 l65 5 0 40 0 40 -113 3 c-86 2 -114 0 -117
-11z"/>
<path d="M1898 674 c-5 -4 -8 -81 -8 -171 l0 -163 49 0 50 0 3 53 3 52 41 5
c57 8 91 33 105 78 14 47 -6 101 -46 128 -29 19 -183 33 -197 18z"/>
<path d="M2216 671 c-3 -5 -30 -79 -60 -165 -60 -172 -60 -170 15 -164 37 3
44 7 49 28 5 21 12 25 51 28 41 3 45 1 56 -28 11 -28 15 -30 62 -30 28 0 51 3
51 7 0 21 -105 319 -114 325 -16 11 -104 10 -110 -1z"/>
<path d="M2455 668 c-3 -8 -4 -83 -3 -168 l3 -155 48 -3 47 -3 -2 168 -3 168
-43 3 c-28 2 -44 -1 -47 -10z"/>
<path d="M2590 511 l0 -172 48 3 47 3 3 55 4 55 27 -55 26 -55 58 -3 c31 -2
57 1 57 5 0 4 -16 34 -36 66 l-36 58 26 26 c21 20 26 36 26 72 0 39 -5 52 -29
75 -28 26 -38 29 -125 34 l-96 5 0 -172z"/>
</g>
</svg>
